# xmcd
#
# Track frame offsets:
#	150
#	5783
#	29154
#	51490
#	75613
#	97514
#	111654
#	144244
#	174208
#	191179
#
# Disc length: 2684 seconds
#
# Revision: 0
# Processed by: cddbd v1.5.1PL2 Copyright (c) Steve Scherf et al.
# Submitted via: EasyCDDAExtractor 8.0.2.1
#
DISCID=850a7a0a
DTITLE=Dio - House Of Blues Myrtle Beach 22-06-98 Disc 1
DYEAR=1998
DGENRE=Hard Rock
TTITLE0=Intro
TTITLE1=Evilution
TTITLE2=Straight Through The Heart
TTITLE3=Don't Talk To Strangers
TTITLE4=Holy Diver
TTITLE5=Drum Solo
TTITLE6=Heaven and Hell
TTITLE7=Children Of The Sea
TTITLE8=Stand Up And Shout
TTITLE9=Shame On The Night
EXTD=
EXTT0=
EXTT1=
EXTT2=
EXTT3=
EXTT4=
EXTT5=
EXTT6=
EXTT7=
EXTT8=
EXTT9=
PLAYORDER=
